<svg width="70" height="70" viewBox="0 0 70 70" fill="none" xmlns="http://www.w3.org/2000/svg">
<rect x="-8" y="34.8887" width="60.6536" height="60.6536" rx="20" transform="rotate(-45 -8 34.8887)" fill="#FEDFB1"/>
<path d="M35 30.125C32.315 30.125 30.125 32.315 30.125 35C30.125 37.685 32.315 39.875 35 39.875C37.685 39.875 39.875 37.685 39.875 35C39.875 32.315 37.685 30.125 35 30.125ZM35 37.625C33.5525 37.625 32.375 36.4475 32.375 35C32.375 33.5525 33.5525 32.375 35 32.375C36.4475 32.375 37.625 33.5525 37.625 35C37.625 36.4475 36.4475 37.625 35 37.625Z" fill="#130F49"/>
<path d="M20 29.375C20.6225 29.375 21.125 28.8725 21.125 28.25V23.375H26C26.6225 23.375 27.125 22.8725 27.125 22.25C27.125 21.6275 26.6225 21.125 26 21.125H20C19.3775 21.125 18.875 21.6275 18.875 22.25V28.25C18.875 28.8725 19.3775 29.375 20 29.375Z" fill="#130F49"/>
<path d="M20 48.875H26C26.6225 48.875 27.125 48.3725 27.125 47.75C27.125 47.1275 26.6225 46.625 26 46.625H21.125V41.75C21.125 41.1275 20.6225 40.625 20 40.625C19.3775 40.625 18.875 41.1275 18.875 41.75V47.75C18.875 48.3725 19.3775 48.875 20 48.875Z" fill="#130F49"/>
<path d="M50 40.625C49.3775 40.625 48.875 41.1275 48.875 41.75V46.625H44C43.3775 46.625 42.875 47.1275 42.875 47.75C42.875 48.3725 43.3775 48.875 44 48.875H50C50.6225 48.875 51.125 48.3725 51.125 47.75V41.75C51.125 41.1275 50.6225 40.625 50 40.625Z" fill="#130F49"/>
<path d="M50 21.125H44C43.3775 21.125 42.875 21.6275 42.875 22.25C42.875 22.8725 43.3775 23.375 44 23.375H48.875V28.25C48.875 28.8725 49.3775 29.375 50 29.375C50.6225 29.375 51.125 28.8725 51.125 28.25V22.25C51.125 21.6275 50.6225 21.125 50 21.125Z" fill="#130F49"/>
</svg>
