<svg width="70" height="70" viewBox="0 0 70 70" fill="none" xmlns="http://www.w3.org/2000/svg">
<rect x="-8" y="34.9999" width="60.6536" height="60.6536" rx="20" transform="rotate(-45 -8 34.9999)" fill="#FECFD0"/>
<path d="M29.2774 33.1249C29.4574 33.1474 29.6299 33.1549 29.8099 33.1549C30.9199 33.1549 31.9849 32.7799 32.8549 32.0749C33.8674 31.2574 34.5049 30.0949 34.6474 28.7974C34.7899 27.4999 34.4149 26.2324 33.5974 25.2199C31.9099 23.1274 28.8349 22.7974 26.7424 24.4849C25.7299 25.3024 25.0924 26.4649 24.9499 27.7624C24.8074 29.0599 25.1824 30.3274 25.9999 31.3399C26.8249 32.3524 27.9874 32.9899 29.2774 33.1249ZM27.1924 28.0024C27.2674 27.3049 27.6124 26.6824 28.1524 26.2399C28.6249 25.8574 29.1949 25.6624 29.7949 25.6624C29.8924 25.6624 29.9824 25.6699 30.0799 25.6774C30.7774 25.7524 31.3999 26.0974 31.8424 26.6449C32.2849 27.1924 32.4799 27.8749 32.4049 28.5724C32.3299 29.2699 31.9849 29.8924 31.4449 30.3349C30.9049 30.7774 30.2149 30.9724 29.5174 30.8974C28.8199 30.8224 28.1974 30.4774 27.7549 29.9299C27.3199 29.3824 27.1174 28.6999 27.1924 28.0024Z" fill="#130F49"/>
<path d="M44.4199 38.6598C42.7324 36.5673 39.6574 36.2373 37.5649 37.9248C36.5524 38.7423 35.9149 39.9048 35.7724 41.2023C35.6299 42.4998 36.0049 43.7673 36.8224 44.7798C37.6399 45.7923 38.8024 46.4298 40.0999 46.5723C40.2799 46.5948 40.4524 46.6023 40.6324 46.6023C41.7424 46.6023 42.8074 46.2273 43.6774 45.5223C45.7699 43.8273 46.1074 40.7523 44.4199 38.6598ZM42.2674 43.7598C41.7199 44.2023 41.0374 44.3973 40.3399 44.3223C39.6424 44.2473 39.0199 43.9023 38.5774 43.3548C38.1349 42.8073 37.9399 42.1248 38.0149 41.4273C38.0899 40.7298 38.4349 40.1073 38.9749 39.6648C39.4624 39.2748 40.0399 39.0873 40.6174 39.0873C41.3824 39.0873 42.1474 39.4248 42.6649 40.0623C43.5724 41.1948 43.3924 42.8523 42.2674 43.7598Z" fill="#130F49"/>
<path d="M45.2 26.4724C44.81 25.9849 44.105 25.9099 43.6175 26.2999L24.9275 41.3599C24.44 41.7499 24.365 42.4549 24.755 42.9424C24.98 43.2199 25.3025 43.3624 25.6325 43.3624C25.88 43.3624 26.1275 43.2799 26.3375 43.1149L45.0275 28.0624C45.515 27.6649 45.59 26.9599 45.2 26.4724Z" fill="#130F49"/>
</svg>
